<svg id="Layer_1" data-name="Layer 1" xmlns="http://www.w3.org/2000/svg" viewBox="0 0 67.51 23.13">
  <defs>
    <style>
      .cls-1 {
        fill: #231f20;
      }
    </style>
  </defs>
  <title>reach_black</title>
  <g>
    <path class="cls-1" d="M1.72,25.24V2.56H6.29a10.09,10.09,0,0,1,3.75.6,4.22,4.22,0,0,1,2.2,1.93A7.46,7.46,0,0,1,13,8.58,9.33,9.33,0,0,1,12.67,11a4.64,4.64,0,0,1-.9,1.82,3.42,3.42,0,0,1-1.62,1.08l3.22,11.37h-3l-3-10.64H4.89V25.24ZM4.89,12.33h1.2A5.8,5.8,0,0,0,8.27,12a2.27,2.27,0,0,0,1.24-1.14A5.36,5.36,0,0,0,9.9,8.58a4.54,4.54,0,0,0-.73-2.87,3.65,3.65,0,0,0-2.88-.88H4.89Z" transform="translate(-1.72 -2.36)"/>
    <path class="cls-1" d="M16.59,25.24V2.56h8.79V4.91H19.75v7.5h4.57v2.25H19.75V23h5.69v2.27Z" transform="translate(-1.72 -2.36)"/>
    <path class="cls-1" d="M27.09,25.24,31.91,2.56H35L39.8,25.24h-3l-1-5.71H31.15l-1.09,5.71Zm4.48-8h3.78L33.45,7Z" transform="translate(-1.72 -2.36)"/>
    <path class="cls-1" d="M48,25.49a6,6,0,0,1-3.74-1,5.12,5.12,0,0,1-1.85-2.71A13,13,0,0,1,41.9,18V10a13.67,13.67,0,0,1,.52-4A4.82,4.82,0,0,1,44.27,3.3,6.44,6.44,0,0,1,48,2.36a6.23,6.23,0,0,1,3.37.79,4.35,4.35,0,0,1,1.79,2.24,10,10,0,0,1,.55,3.5v1.79h-3V9.08a18.11,18.11,0,0,0-.12-2.22,2.45,2.45,0,0,0-.69-1.5A2.66,2.66,0,0,0,48,4.83a2.83,2.83,0,0,0-2,.57A2.86,2.86,0,0,0,45.27,7a14.48,14.48,0,0,0-.18,2.44v9a10.62,10.62,0,0,0,.28,2.7,2.38,2.38,0,0,0,.93,1.42A3.14,3.14,0,0,0,48,23a2.51,2.51,0,0,0,1.85-.57,2.79,2.79,0,0,0,.7-1.59,17.77,17.77,0,0,0,.14-2.35V16.81h3v1.68a11.87,11.87,0,0,1-.51,3.65,4.64,4.64,0,0,1-1.73,2.47A5.88,5.88,0,0,1,48,25.49Z" transform="translate(-1.72 -2.36)"/>
    <path class="cls-1" d="M57.08,25.24V2.56h3.16v9.8h5.82V2.56h3.17V25.24H66.06V14.63H60.24V25.24Z" transform="translate(-1.72 -2.36)"/>
  </g>
</svg>
